<svg width="96" height="96" viewBox="0 0 48 48" fill="none" xmlns="http://www.w3.org/2000/svg">
  <rect x="4" y="4" width="40" height="40" rx="13" fill="#171512"/>
  <g transform="translate(9.5,13) scale(0.86)">
    <path d="M12 0C12 6.6 6.6 12 0 12 6.6 12 12 17.4 12 24 12 17.4 17.4 12 24 12 17.4 12 12 6.6 12 0Z" fill="#F7F4EF"/>
  </g>
  <g transform="translate(28.5,9.5) scale(0.4)">
    <path d="M12 0C12 6.6 6.6 12 0 12 6.6 12 12 17.4 12 24 12 17.4 17.4 12 24 12 17.4 12 12 6.6 12 0Z" fill="#E8654A"/>
  </g>
</svg>
